{"title":"18+ Do Women Have A Higher Sex Drive 2018 720p WEB-DL x264 MW","magnet":"magnet:?xt=urn:btih:28104438edb4faf12613cb02a0b990c43138d3e8&dn=18%2B+Do+Women+Have+A+Higher+Sex+Drive+2018+720p+WEB-DL+x264+MW&tr=udp%3A%2F%2Ftracker.leechers-paradise.org%3A6969&tr=udp%3A%2F%2Fzer0day.ch%3A1337&tr=udp%3A%2F%2Fopen.demonii.com%3A1337&tr=udp%3A%2F%2Ftracker.coppersurfer.tk%3A6969&tr=udp%3A%2F%2Fexodus.desync.com%3A6969","uploader":"MFreaky","categoryP":"video","categoryS":"hd___movies","size":"633766046","seeders":"13","leechers":"15","description":"[18+] Do Women Have A Higher Sex Drive 2018 720p WEB-DL x264 ESub [MW]\r\n <a href=\"\nhttps://pichub.site/image/D91pj\" rel=\"nofollow\" target=\"_NEW\">\nhttps://pichub.site/image/D91pj</a> <a href=\"\nhttps://pichub.site/image/D9FvQ\" rel=\"nofollow\" target=\"_NEW\">\nhttps://pichub.site/image/D9FvQ</a> <a href=\"\nhttps://pichub.site/image/D9Tkk\" rel=\"nofollow\" target=\"_NEW\">\nhttps://pichub.site/image/D9Tkk</a> <a href=\"\nhttps://pichub.site/image/D9QHv\" rel=\"nofollow\" target=\"_NEW\">\nhttps://pichub.site/image/D9QHv</a> <a href=\"\nhttps://pichub.site/image/D9eg9\" rel=\"nofollow\" target=\"_NEW\">\nhttps://pichub.site/image/D9eg9</a> <a href=\"\nhttps://pichub.site/image/D9bDd\" rel=\"nofollow\" target=\"_NEW\">\nhttps://pichub.site/image/D9bDd</a>\r\n\r\nIMDB <a href=\"\nhttps://www.imdb.com/title/tt7610196/\" rel=\"nofollow\" target=\"_NEW\">\nhttps://www.imdb.com/title/tt7610196/</a>\r\n\r\nVideo\r\nID                                       : 1\r\nFormat                                   : AVC\r\nFormat/Info                              : Advanced Video Codec\r\nFormat profile                           : High@L4.1\r\nFormat settings                          : CABAC / 4 Ref Frames\r\nFormat settings, CABAC                   : Yes\r\nFormat settings, RefFrames               : 4 frames\r\nCodec ID                                 : V_MPEG4/ISO/AVC\r\nDuration                                 : 1 h 9 min\r\nBit rate                                 : 1 049 kb/s\r\nNominal bit rate                         : 1 200 kb/s\r\nWidth                                    : 1 280 pixels\r\nHeight                                   : 720 pixels\r\nDisplay aspect ratio                     : 16:9\r\nFrame rate mode                          : Constant\r\nFrame rate                               : 25.000 FPS\r\nColor space                              : YUV\r\nChroma subsampling                       : 4:2:0\r\nBit depth                                : 8 bits\r\nScan type                                : Progressive\r\nBits/(Pixel*Frame)                       : 0.046\r\nStream size                              : 523 MiB (87%)\r\nWriting library                          : x264 core 155 r2901 7d0ff22\r\nDefault                                  : Yes\r\nForced                                   : No\r\n\r\nAudio\r\nID                                       : 2\r\nFormat                                   : AAC\r\nFormat/Info                              : Advanced Audio Codec\r\nFormat profile                           : LC\r\nCodec ID                                 : A_AAC-2\r\nDuration                                 : 1 h 9 min\r\nBit rate                                 : 160 kb/s\r\nChannel(s)                               : 2 channels\r\nChannel positions                        : Front: L R\r\nSampling rate                            : 48.0 kHz\r\nFrame rate                               : 46.875 FPS (1024 SPF)\r\nCompression mode                         : Lossy\r\nStream size                              : 80.0 MiB (13%)\r\nLanguage                                 : English\r\nDefault                                  : Yes\r\nForced                                   : No","last_updated":"2018-09-10T12:16:24.717Z","parsed":{"xt":"urn:btih:28104438edb4faf12613cb02a0b990c43138d3e8","dn":"18  Do Women Have A Higher Sex Drive 2018 720p WEB-DL x264 MW","tr":["udp://exodus.desync.com:6969","udp://open.demonii.com:1337","udp://tracker.coppersurfer.tk:6969","udp://tracker.leechers-paradise.org:6969","udp://zer0day.ch:1337"],"infoHash":"28104438edb4faf12613cb02a0b990c43138d3e8","infoHashBuffer":{"type":"Buffer","data":[40,16,68,56,237,180,250,241,38,19,203,2,160,185,144,196,49,56,211,232]},"name":"18  Do Women Have A Higher Sex Drive 2018 720p WEB-DL x264 MW","announce":["udp://exodus.desync.com:6969","udp://open.demonii.com:1337","udp://tracker.coppersurfer.tk:6969","udp://tracker.leechers-paradise.org:6969","udp://zer0day.ch:1337"],"urlList":[]}}